<svg width="32" height="32" viewBox="0 0 32 32" fill="none" xmlns="http://www.w3.org/2000/svg">
<path fill-rule="evenodd" clip-rule="evenodd" d="M15.7303 15.7474C15.7303 13.5731 17.491 11.8105 19.6629 11.8105C21.8348 11.8105 23.5955 13.5731 23.5955 15.7474C23.5955 17.9217 21.8348 19.6842 19.6629 19.6842C17.491 19.6842 15.7303 17.9217 15.7303 15.7474Z" fill="#1ABCFE"/>
<path fill-rule="evenodd" clip-rule="evenodd" d="M7.86517 23.6212C7.86517 21.4469 9.62585 19.6843 11.7978 19.6843H15.7303V23.6212C15.7303 25.7954 13.9697 27.558 11.7978 27.558C9.62585 27.558 7.86517 25.7954 7.86517 23.6212Z" fill="#0ACF83"/>
<path fill-rule="evenodd" clip-rule="evenodd" d="M15.7303 3.93689V11.8106H19.6629C21.8348 11.8106 23.5955 10.048 23.5955 7.87374C23.5955 5.69948 21.8348 3.93689 19.6629 3.93689H15.7303Z" fill="#FF7262"/>
<path fill-rule="evenodd" clip-rule="evenodd" d="M7.86517 7.87374C7.86517 10.048 9.62585 11.8106 11.7978 11.8106H15.7303V3.93689H11.7978C9.62585 3.93689 7.86517 5.69948 7.86517 7.87374Z" fill="#F24E1E"/>
<path fill-rule="evenodd" clip-rule="evenodd" d="M7.86517 15.7474C7.86517 17.9217 9.62585 19.6842 11.7978 19.6842H15.7303V11.8105H11.7978C9.62585 11.8105 7.86517 13.5731 7.86517 15.7474Z" fill="#A259FF"/>
</svg>
